<svg width="18" height="18" viewBox="0 0 18 18" fill="none" xmlns="http://www.w3.org/2000/svg">
<path d="M10.8225 14.1151C10.68 14.1151 10.5375 14.0626 10.425 13.9501C10.2075 13.7326 10.2075 13.3726 10.425 13.1551L14.58 9.00009L10.425 4.84509C10.2075 4.62759 10.2075 4.26759 10.425 4.05009C10.6425 3.83259 11.0025 3.83259 11.22 4.05009L15.7725 8.60259C15.99 8.82009 15.99 9.18009 15.7725 9.39759L11.22 13.9501C11.1075 14.0626 10.965 14.1151 10.8225 14.1151Z" fill="#F44949"/>
<path d="M15.2475 9.5625H2.625C2.3175 9.5625 2.0625 9.3075 2.0625 9C2.0625 8.6925 2.3175 8.4375 2.625 8.4375H15.2475C15.555 8.4375 15.81 8.6925 15.81 9C15.81 9.3075 15.555 9.5625 15.2475 9.5625Z" fill="#F44949"/>
</svg>
