<svg width="48" height="48" viewBox="0 0 48 48" fill="none" xmlns="http://www.w3.org/2000/svg">
<path d="M42.18 13.96C40.48 12.08 37.64 11.14 33.52 11.14H33.04V11.06C33.04 7.70004 33.04 3.54004 25.52 3.54004H22.48C14.96 3.54004 14.96 7.72004 14.96 11.06V11.16H14.48C10.34 11.16 7.51995 12.1 5.81995 13.98C3.83995 16.18 3.89995 19.14 4.09995 21.16L4.11995 21.3L4.31995 23.4C4.33995 23.42 4.37995 23.46 4.41995 23.48C5.07995 23.92 5.75995 24.36 6.47995 24.76C6.75995 24.94 7.05995 25.1 7.35995 25.26C10.78 27.14 14.54 28.4 18.36 29.02C18.54 30.9 19.36 33.1 23.74 33.1C28.12 33.1 28.98 30.92 29.12 28.98C33.2 28.32 37.14 26.9 40.7 24.82C40.82 24.76 40.9 24.7 41 24.64C41.92 24.12 42.78 23.56 43.62 22.94C43.66 22.92 43.7 22.88 43.72 22.84L43.8 22.12L43.9 21.18C43.92 21.06 43.92 20.96 43.94 20.82C44.1 18.8 44.06 16.04 42.18 13.96ZM26.18 27.66C26.18 29.78 26.18 30.1 23.72 30.1C21.26 30.1 21.26 29.72 21.26 27.68V25.16H26.18V27.66ZM17.82 11.14V11.06C17.82 7.66004 17.82 6.40004 22.48 6.40004H25.52C30.18 6.40004 30.18 7.68004 30.18 11.06V11.16H17.82V11.14Z" fill="#F44949"/>
<path opacity="0.4" d="M40.9999 24.5998C40.8999 24.6598 40.7999 24.7198 40.6999 24.7798C37.1399 26.8598 33.1999 28.2598 29.1199 28.9398C28.9599 30.8598 28.1199 33.0598 23.7399 33.0598C19.3599 33.0598 18.5199 30.8798 18.3599 28.9798C14.5399 28.3798 10.7799 27.1198 7.35995 25.2198C7.05995 25.0598 6.75995 24.8998 6.47995 24.7198C5.75995 24.3198 5.07995 23.8798 4.41995 23.4398C4.37995 23.4198 4.33995 23.3798 4.31995 23.3598L5.53995 36.3798C5.95995 40.3598 7.59995 44.4598 16.3999 44.4598H31.6399C40.4399 44.4598 42.0799 40.3598 42.4999 36.3598L43.7599 22.7998C43.7399 22.8398 43.6999 22.8798 43.6599 22.8998C42.7999 23.5198 41.9199 24.0998 40.9999 24.5998Z" fill="#F44949"/>
</svg>
