<svg width="48" height="48" viewBox="0 0 48 48" fill="none" xmlns="http://www.w3.org/2000/svg">
<path opacity="0.4" d="M16 44H32C37.52 44 42 39.52 42 34V14C42 8.48 37.52 4 32 4H16C10.48 4 6 8.48 6 14V34C6 39.52 10.48 44 16 44Z" fill="#F44949"/>
<path d="M30 11.4199H18C15.94 11.4199 14.24 13.0999 14.24 15.1799V17.1799C14.24 19.2399 15.92 20.9399 18 20.9399H30C32.06 20.9399 33.76 19.2599 33.76 17.1799V15.1799C33.76 13.0999 32.08 11.4199 30 11.4199Z" fill="#F44949"/>
<path d="M16.32 29.8401C16.04 29.8401 15.78 29.7801 15.54 29.6801C15.3 29.5801 15.08 29.4401 14.9 29.2601C14.52 28.8801 14.3 28.3801 14.3 27.8401C14.3 27.5801 14.36 27.3201 14.46 27.0801C14.56 26.8201 14.7 26.6201 14.9 26.4201C15.36 25.9601 16.06 25.7401 16.7 25.8801C16.82 25.9001 16.96 25.9401 17.08 26.0001C17.2 26.0401 17.32 26.1001 17.42 26.1801C17.54 26.2401 17.64 26.3401 17.72 26.4201C17.9 26.6201 18.06 26.8201 18.16 27.0801C18.26 27.3201 18.3 27.5801 18.3 27.8401C18.3 28.3801 18.1 28.8801 17.72 29.2601C17.34 29.6401 16.84 29.8401 16.32 29.8401Z" fill="#F44949"/>
<path d="M24.3 29.8402C23.78 29.8402 23.28 29.6402 22.9 29.2602C22.52 28.8802 22.3 28.3802 22.3 27.8402C22.3 27.3202 22.52 26.8002 22.9 26.4202C23.64 25.6802 24.98 25.6802 25.72 26.4202C25.9 26.6202 26.06 26.8202 26.16 27.0802C26.26 27.3202 26.3 27.5802 26.3 27.8402C26.3 28.3802 26.1 28.8802 25.72 29.2602C25.34 29.6402 24.84 29.8402 24.3 29.8402Z" fill="#F44949"/>
<path d="M32.3 29.8402C31.78 29.8402 31.28 29.6402 30.9 29.2602C30.52 28.8802 30.3 28.3802 30.3 27.8402C30.3 27.3202 30.52 26.8002 30.9 26.4202C31.64 25.6802 32.9801 25.6802 33.7201 26.4202C34.1001 26.8002 34.32 27.3202 34.32 27.8402C34.32 28.1002 34.26 28.3602 34.16 28.6002C34.06 28.8402 33.9201 29.0602 33.7201 29.2602C33.3401 29.6402 32.84 29.8402 32.3 29.8402Z" fill="#F44949"/>
<path d="M16.32 37.8401C15.78 37.8401 15.28 37.6401 14.9 37.2601C14.52 36.8801 14.3 36.3801 14.3 35.8401C14.3 35.3201 14.52 34.8001 14.9 34.4201C15.08 34.2401 15.3 34.1001 15.54 34.0001C16.04 33.8001 16.58 33.8001 17.08 34.0001C17.2 34.0401 17.32 34.1001 17.42 34.1801C17.54 34.2401 17.64 34.3401 17.72 34.4201C18.1 34.8001 18.32 35.3201 18.32 35.8401C18.32 36.3801 18.1 36.8801 17.72 37.2601C17.34 37.6401 16.84 37.8401 16.32 37.8401Z" fill="#F44949"/>
<path d="M24.3 37.84C23.78 37.84 23.28 37.64 22.9 37.26C22.52 36.88 22.3 36.38 22.3 35.84C22.3 35.7 22.32 35.58 22.34 35.44C22.38 35.32 22.42 35.2 22.46 35.08C22.52 34.96 22.58 34.84 22.64 34.72C22.72 34.62 22.8 34.52 22.9 34.42C23.08 34.24 23.3001 34.1 23.5401 34C24.2801 33.7 25.16 33.86 25.72 34.42C26.1 34.8 26.3 35.32 26.3 35.84C26.3 36.38 26.1 36.88 25.72 37.26C25.54 37.44 25.32 37.58 25.08 37.68C24.84 37.78 24.58 37.84 24.3 37.84Z" fill="#F44949"/>
<path d="M32.2999 37.84C32.0399 37.84 31.7799 37.78 31.5399 37.68C31.2999 37.58 31.0799 37.44 30.8999 37.26C30.5199 36.88 30.3199 36.38 30.3199 35.84C30.3199 35.32 30.5199 34.8 30.8999 34.42C31.4399 33.86 32.3399 33.7 33.0799 34C33.3199 34.1 33.5399 34.24 33.7199 34.42C34.0999 34.8 34.2999 35.32 34.2999 35.84C34.2999 36.38 34.0999 36.88 33.7199 37.26C33.3399 37.64 32.8399 37.84 32.2999 37.84Z" fill="#F44949"/>
</svg>
