<svg width="216" height="66" viewBox="0 0 216 66" fill="none" xmlns="http://www.w3.org/2000/svg">
<g clip-path="url(#clip0_3551_2231)">
<path d="M214.625 58.206C214.625 59.0366 214.466 59.8591 214.157 60.6264C213.849 61.3937 213.396 62.0908 212.826 62.6778C212.256 63.2648 211.579 63.7302 210.834 64.0475C210.089 64.3648 209.291 64.5276 208.485 64.5267H7.57289C5.94449 64.5285 4.38208 63.8636 3.22927 62.6783C2.07647 61.493 1.42766 59.8843 1.42554 58.206V7.80042C1.42766 6.1214 2.07621 4.51187 3.22879 3.32524C4.38136 2.13862 5.94375 1.47189 7.57289 1.47145H208.484C209.29 1.47145 210.089 1.63517 210.833 1.95325C211.578 2.27133 212.255 2.73754 212.825 3.32526C213.396 3.91298 213.848 4.61069 214.156 5.37855C214.465 6.14641 214.623 6.96936 214.623 7.80042L214.625 58.206Z" fill="white"/>
<path d="M208.485 65.9994H7.57251C5.5665 65.999 3.64259 65.1784 2.22293 63.7178C0.803266 62.2571 0.00381688 60.2757 0 58.2083L0 7.80435C0.0029676 5.7359 0.801889 3.75312 2.2215 2.29097C3.64112 0.82882 5.5655 0.00669732 7.57251 0.00495148L208.483 0.00495148C210.49 0.00756846 212.414 0.829971 213.833 2.29193C215.253 3.75389 216.052 5.73617 216.056 7.80435V58.2083C216.059 62.5057 212.656 65.9994 208.485 65.9994Z" fill="#A6A6A6"/>
<path d="M214.625 58.206C214.625 59.0366 214.466 59.8591 214.157 60.6264C213.849 61.3937 213.396 62.0908 212.826 62.6778C212.256 63.2648 211.579 63.7302 210.834 64.0475C210.089 64.3648 209.291 64.5276 208.485 64.5267H7.57289C5.94449 64.5285 4.38208 63.8636 3.22927 62.6783C2.07647 61.493 1.42766 59.8843 1.42554 58.206V7.80042C1.42766 6.1214 2.07621 4.51187 3.22879 3.32524C4.38136 2.13862 5.94375 1.47189 7.57289 1.47145H208.484C209.29 1.47145 210.089 1.63517 210.833 1.95325C211.578 2.27133 212.255 2.73754 212.825 3.32526C213.396 3.91298 213.848 4.61069 214.156 5.37855C214.465 6.14641 214.623 6.96936 214.623 7.80042L214.625 58.206Z" fill="black"/>
<path d="M48.2441 32.6526C48.1977 27.3336 52.4699 24.7459 52.6653 24.6255C50.2457 20.9898 46.4955 20.4931 45.1777 20.4535C42.0279 20.1118 38.9727 22.3959 37.3682 22.3959C35.7316 22.3959 33.2609 20.4865 30.5979 20.5426C27.1711 20.597 23.9654 22.6418 22.2071 25.817C18.5786 32.2912 21.2848 41.8053 24.7612 47.0384C26.5002 49.603 28.5322 52.463 31.192 52.3623C33.7941 52.2534 34.7661 50.6543 37.9062 50.6543C41.0175 50.6543 41.9302 52.3623 44.6428 52.298C47.4355 52.2534 49.1937 49.7235 50.8718 47.1374C52.8815 44.2015 53.6885 41.3069 53.7205 41.1583C53.6565 41.1352 48.2986 39.0261 48.2441 32.6526ZM43.12 17.0109C44.5195 15.2071 45.4771 12.7531 45.2113 10.2627C43.1856 10.3552 40.6524 11.7068 39.1936 13.471C37.903 15.0256 36.7501 17.5736 37.0479 19.9699C39.3233 20.1448 41.6596 18.7866 43.12 17.0109Z" fill="white"/>
<path d="M208.485 0.00266266H100.87L143.021 65.9972H208.485C210.491 65.9954 212.415 65.1738 213.835 63.7123C215.254 62.2509 216.053 60.269 216.057 58.2011V7.80206C216.054 5.73375 215.255 3.75122 213.835 2.28916C212.416 0.827107 210.492 0.00484424 208.485 0.00266266V0.00266266Z" fill="url(#paint0_linear_3551_2231)"/>
<path d="M85.9336 51.9943H82.2971L80.3051 45.5432H73.3811L71.4836 51.9943H67.9431L74.8046 30.0319H79.0417L85.9336 51.9943ZM79.7046 42.8367L77.9031 37.1019C77.7126 36.516 77.3539 35.1363 76.8287 32.9645H76.7646C76.5533 33.8986 76.2154 35.2783 75.7526 37.1019L73.9816 42.8367H79.7046ZM103.545 43.8814C103.545 46.5747 102.835 48.7036 101.415 50.2664C100.143 51.6577 98.563 52.3524 96.6783 52.3524C94.643 52.3524 93.1795 51.6049 92.2907 50.1064V58.4157H88.8768V41.363C88.8768 39.6714 88.8336 37.9369 88.7503 36.1579H91.7527L91.9433 38.668H92.0073C93.1458 36.7768 94.8736 35.8311 97.1923 35.8311C99.005 35.8311 100.518 36.5688 101.729 38.0458C102.938 39.5262 103.545 41.4703 103.545 43.8814ZM100.067 44.0101C100.067 42.4687 99.7304 41.198 99.0546 40.1962C98.3164 39.1549 97.3252 38.6334 96.0826 38.6334C95.2403 38.6334 94.4749 38.9238 93.7912 39.4965C93.1058 40.0741 92.6574 40.8283 92.4477 41.7624C92.354 42.1117 92.3008 42.4712 92.2891 42.8334V45.4756C92.2891 46.6258 92.6318 47.5979 93.3172 48.3933C94.0025 49.1855 94.8928 49.5832 95.9881 49.5832C97.274 49.5832 98.2748 49.07 98.9906 48.0517C99.7079 47.0302 100.067 45.6835 100.067 44.0101ZM121.218 43.8814C121.218 46.5747 120.509 48.7036 119.088 50.2664C117.815 51.6577 116.236 52.3524 114.35 52.3524C112.315 52.3524 110.851 51.6049 109.963 50.1064V58.4157H106.549V41.363C106.549 39.6714 106.505 37.9369 106.422 36.1579H109.425L109.615 38.668H109.679C110.816 36.7768 112.544 35.8311 114.864 35.8311C116.675 35.8311 118.188 36.5688 119.402 38.0458C120.61 39.5262 121.218 41.4703 121.218 43.8814ZM117.738 44.0101C117.738 42.4687 117.401 41.198 116.725 40.1962C115.987 39.1549 114.999 38.6334 113.756 38.6334C112.914 38.6334 112.148 38.9238 111.461 39.4965C110.776 40.0741 110.329 40.8283 110.12 41.7624C110.015 42.198 109.959 42.5529 109.959 42.8334V45.4756C109.959 46.6258 110.304 47.5979 110.986 48.3933C111.671 49.1838 112.562 49.5832 113.66 49.5832C114.947 49.5832 115.948 49.07 116.662 48.0517C117.38 47.0302 117.738 45.6835 117.738 44.0101ZM140.978 45.8337C140.978 47.7035 140.344 49.2234 139.084 50.3968C137.697 51.6775 135.761 52.3194 133.279 52.3194C130.986 52.3194 129.148 51.864 127.761 50.9513L128.55 48.0187C130.048 48.933 131.692 49.3885 133.482 49.3885C134.77 49.3885 135.771 49.0881 136.485 48.4924C137.201 47.8949 137.562 47.0962 137.562 46.0994C137.562 45.2066 137.263 44.459 136.675 43.85C136.084 43.2427 135.108 42.6766 133.735 42.1568C130.004 40.7227 128.137 38.6251 128.137 35.8658C128.137 34.0636 128.797 32.5882 130.113 31.4347C131.43 30.2828 133.175 29.7068 135.346 29.7068C137.285 29.7068 138.901 30.055 140.184 30.7498L139.327 33.618C138.12 32.9447 136.757 32.6081 135.233 32.6081C134.028 32.6081 133.084 32.9134 132.408 33.5207C131.839 34.0636 131.551 34.7254 131.551 35.511C131.551 36.3774 131.879 37.0969 132.533 37.6613C133.1 38.1812 134.134 38.7472 135.63 39.3545C137.465 40.117 138.813 41.0049 139.676 42.0248C140.546 43.0447 140.978 44.3171 140.978 45.8337ZM152.294 38.7984H148.531V46.4872C148.531 48.4428 149.194 49.4182 150.523 49.4182C151.133 49.4182 151.639 49.3654 152.04 49.2548L152.134 51.9267C151.462 52.1858 150.576 52.3161 149.479 52.3161C148.131 52.3161 147.077 51.892 146.317 51.0437C145.559 50.1955 145.178 48.7746 145.178 46.7744V38.7918H142.936V36.1513H145.178V33.2517L148.531 32.2087V36.1513H152.294V38.7984ZM169.239 43.9457C169.239 46.3799 168.563 48.3785 167.215 49.9413C165.804 51.5504 163.928 52.3524 161.588 52.3524C159.33 52.3524 157.535 51.5817 156.197 50.042C154.858 48.499 154.189 46.5549 154.189 44.2098C154.189 41.7558 154.88 39.7457 156.259 38.1828C157.641 36.6183 159.502 35.8361 161.841 35.8361C164.096 35.8361 165.907 36.6084 167.278 38.1498C168.587 39.645 169.239 41.5759 169.239 43.9457ZM165.7 44.0266C165.7 42.576 165.396 41.3316 164.786 40.2903C164.07 39.0327 163.045 38.404 161.718 38.404C160.35 38.404 159.302 39.0327 158.587 40.2903C157.976 41.3316 157.671 42.5974 157.671 44.0926C157.671 45.5449 157.976 46.7925 158.587 47.8306C159.326 49.0881 160.355 49.7169 161.689 49.7169C162.994 49.7169 164.017 49.0749 164.757 47.7992C165.385 46.7331 165.7 45.4805 165.7 44.0266ZM180.341 39.2522C179.986 39.1862 179.626 39.1536 179.265 39.1549C178.064 39.1549 177.135 39.6202 176.482 40.5576C175.915 41.3828 175.63 42.4258 175.63 43.685V51.9943H172.216V41.1451C172.219 39.4827 172.186 37.8204 172.117 36.1595H175.09L175.215 39.1895H175.31C175.672 38.1482 176.238 37.3082 177.017 36.6794C177.729 36.13 178.595 35.8324 179.484 35.8311C179.8 35.8311 180.085 35.8542 180.338 35.8955L180.341 39.2522ZM195.609 43.3269C195.618 43.8617 195.576 44.3962 195.484 44.9227H185.243C185.281 46.4872 185.777 47.6853 186.729 48.5105C187.592 49.2465 188.708 49.6162 190.078 49.6162C191.595 49.6162 192.978 49.3687 194.223 48.8686L194.757 51.3094C193.303 51.963 191.587 52.2881 189.606 52.2881C187.223 52.2881 185.353 51.5652 183.992 50.1229C182.634 48.6788 181.953 46.7381 181.953 44.3071C181.953 41.9208 182.586 39.9322 183.853 38.3462C185.178 36.653 186.97 35.8064 189.225 35.8064C191.44 35.8064 193.116 36.653 194.255 38.3462C195.156 39.6879 195.609 41.3514 195.609 43.3269ZM192.354 42.4142C192.378 41.3696 192.154 40.4702 191.691 39.7094C191.1 38.7291 190.191 38.2406 188.972 38.2406C187.856 38.2406 186.946 38.7175 186.255 39.6747C185.686 40.4355 185.348 41.3498 185.244 42.4109L192.354 42.4142Z" fill="white"/>
<path d="M72.3954 22.2671C71.4459 22.2671 70.6244 22.2192 69.9407 22.1383V11.5202C70.897 11.368 71.8634 11.2929 72.831 11.2958C76.7462 11.2958 78.5492 13.2811 78.5492 16.5174C78.5492 20.2504 76.4195 22.2671 72.3954 22.2671ZM72.9687 12.6573C72.4403 12.6573 71.9903 12.6903 71.6172 12.7695V20.8412C71.819 20.8742 72.2065 20.8891 72.7509 20.8891C75.3162 20.8891 76.7766 19.384 76.7766 16.5652C76.7766 14.0518 75.4555 12.6573 72.9687 12.6573ZM84.1681 22.3479C81.9616 22.3479 80.5316 20.6498 80.5316 18.3443C80.5316 15.9414 81.992 14.2284 84.293 14.2284C86.4676 14.2284 87.9296 15.8457 87.9296 18.2172C87.9296 20.6498 86.4228 22.3479 84.1681 22.3479ZM84.2322 15.4925C83.02 15.4925 82.2434 16.6609 82.2434 18.2948C82.2434 19.8972 83.036 21.0656 84.2162 21.0656C85.3963 21.0656 86.189 19.8163 86.189 18.2618C86.189 16.6774 85.4123 15.4925 84.2322 15.4925ZM100.513 14.3885L98.1506 22.1713H96.6118L95.6334 18.7915C95.3901 17.9648 95.1876 17.1259 95.0265 16.2781H94.9945C94.8712 17.1263 94.6374 17.9762 94.3892 18.7915L93.3483 22.1713H91.7935L89.5709 14.3885H91.2955L92.1506 18.0885C92.3523 18.9697 92.5221 19.8015 92.663 20.587H92.695C92.8183 19.9319 93.0201 19.1133 93.3163 18.105L94.3892 14.3901H95.7567L96.7831 18.0258C97.0313 18.907 97.2331 19.7718 97.39 20.5887H97.4348C97.5437 19.7883 97.7151 18.9384 97.9472 18.0258L98.8648 14.3901L100.513 14.3885ZM109.208 22.1713H107.529V17.7023C107.529 16.3259 107.017 15.6361 106.007 15.6361C105.012 15.6361 104.328 16.5174 104.328 17.5422V22.1713H102.65V16.6131C102.65 15.9249 102.634 15.1872 102.588 14.3868H104.064L104.143 15.5882H104.189C104.641 14.7565 105.557 14.2284 106.583 14.2284C108.168 14.2284 109.209 15.4777 109.209 17.5109L109.208 22.1713ZM113.835 22.1713H112.156V10.8172H113.835V22.1713ZM119.954 22.3479C117.749 22.3479 116.317 20.6498 116.317 18.3443C116.317 15.9414 117.778 14.2284 120.077 14.2284C122.253 14.2284 123.714 15.8457 123.714 18.2172C123.715 20.6498 122.207 22.3479 119.954 22.3479ZM120.016 15.4925C118.804 15.4925 118.027 16.6609 118.027 18.2948C118.027 19.8972 118.822 21.0656 119.999 21.0656C121.18 21.0656 121.971 19.8163 121.971 18.2618C121.973 16.6774 121.198 15.4925 120.016 15.4925ZM130.33 22.1713L130.208 21.2752H130.164C129.651 21.9964 128.903 22.3479 127.955 22.3479C126.602 22.3479 125.642 21.3709 125.642 20.0573C125.642 18.1363 127.257 17.1428 130.055 17.1428V16.9993C130.055 15.9744 129.528 15.4612 128.487 15.4612C127.742 15.4612 127.089 15.6543 126.514 16.0388L126.173 14.9017C126.871 14.4528 127.742 14.2284 128.766 14.2284C130.738 14.2284 131.734 15.3011 131.734 17.4481V20.3147C131.734 21.1003 131.768 21.7093 131.843 22.173L130.33 22.1713ZM130.1 18.2948C128.236 18.2948 127.301 18.7601 127.301 19.8642C127.301 20.6811 127.783 21.0805 128.452 21.0805C129.305 21.0805 130.1 20.4088 130.1 19.4962V18.2948ZM139.883 22.1713L139.805 20.9221H139.759C139.277 21.866 138.466 22.3479 137.334 22.3479C135.514 22.3479 134.165 20.6976 134.165 18.3756C134.165 15.9414 135.563 14.2267 137.472 14.2267C138.482 14.2267 139.198 14.5782 139.602 15.2846H139.635V10.8172H141.315V20.0738C141.315 20.8263 141.333 21.531 141.377 22.1713H139.883ZM139.635 17.5917C139.635 16.5025 138.935 15.5734 137.867 15.5734C136.623 15.5734 135.863 16.7105 135.863 18.3113C135.863 19.8807 136.652 20.9551 137.834 20.9551C138.889 20.9551 139.635 20.0094 139.635 18.8889V17.5917ZM151.965 22.3479C149.76 22.3479 148.33 20.6498 148.33 18.3443C148.33 15.9414 149.791 14.2284 152.09 14.2284C154.266 14.2284 155.727 15.8457 155.727 18.2172C155.728 20.6498 154.221 22.3479 151.965 22.3479ZM152.028 15.4925C150.817 15.4925 150.04 16.6609 150.04 18.2948C150.04 19.8972 150.833 21.0656 152.012 21.0656C153.193 21.0656 153.984 19.8163 153.984 18.2618C153.988 16.6774 153.211 15.4925 152.028 15.4925ZM164.752 22.1713H163.072V17.7023C163.072 16.3259 162.559 15.6361 161.549 15.6361C160.555 15.6361 159.872 16.5174 159.872 17.5422V22.1713H158.193V16.6131C158.193 15.9249 158.177 15.1872 158.13 14.3868H159.607L159.685 15.5882H159.731C160.181 14.7565 161.099 14.2267 162.124 14.2267C163.709 14.2267 164.752 15.476 164.752 17.5092V22.1713ZM176.042 15.6856H174.196V19.4648C174.196 20.427 174.519 20.9072 175.173 20.9072C175.469 20.9072 175.717 20.8742 175.917 20.8263L175.964 22.14C175.639 22.2687 175.203 22.3331 174.662 22.3331C173.339 22.3331 172.548 21.5805 172.548 19.6101V15.6856H171.447V14.3885H172.548V12.9626L174.196 12.4493V14.3868H176.042V15.6856ZM184.926 22.1713H183.25V17.7353C183.25 16.3424 182.739 15.6377 181.727 15.6377C180.857 15.6377 180.047 16.2467 180.047 17.4795V22.1713H178.37V10.8172H180.047V15.4925H180.081C180.609 14.6443 181.375 14.2267 182.351 14.2267C183.949 14.2267 184.926 15.5074 184.926 17.5422V22.1713ZM194.028 18.6958H188.992C189.024 20.1695 189.97 21.0013 191.371 21.0013C192.116 21.0013 192.801 20.8726 193.407 20.6333L193.668 21.8347C192.953 22.1548 192.113 22.3149 191.134 22.3149C188.772 22.3149 187.375 20.7768 187.375 18.3921C187.375 16.0058 188.806 14.2119 190.945 14.2119C192.875 14.2119 194.086 15.6856 194.086 17.9119C194.096 18.1746 194.077 18.4377 194.028 18.6958ZM192.489 17.463C192.489 16.2616 191.901 15.4133 190.829 15.4133C189.865 15.4133 189.102 16.2781 188.993 17.463H192.489Z" fill="white"/>
</g>
<defs>
<linearGradient id="paint0_linear_3551_2231" x1="158.462" y1="66.1724" x2="158.462" y2="-171.836" gradientUnits="userSpaceOnUse">
<stop stop-color="#1A1A1A" stop-opacity="0.1"/>
<stop offset="0.123" stop-color="#212121" stop-opacity="0.151"/>
<stop offset="0.308" stop-color="#353535" stop-opacity="0.227"/>
<stop offset="0.532" stop-color="#575757" stop-opacity="0.318"/>
<stop offset="0.783" stop-color="#858585" stop-opacity="0.421"/>
<stop offset="1" stop-color="#B3B3B3" stop-opacity="0.51"/>
</linearGradient>
<clipPath id="clip0_3551_2231">
<rect width="216" height="66" fill="white"/>
</clipPath>
</defs>
</svg>
