<svg width="523" height="229" viewBox="0 0 523 229" fill="none" xmlns="http://www.w3.org/2000/svg">
<path d="M518.315 11.6245C520.812 14.634 521.646 18.3082 520.788 22.6309C519.928 26.9594 517.382 31.874 513.232 37.2803C504.933 48.0913 490.34 60.7181 470.571 74.3525C431.044 101.613 370.996 132.784 299.793 161.389C228.59 189.993 159.769 210.593 106.078 220.782C79.2238 225.878 56.212 228.358 38.6072 227.953C29.8035 227.751 22.4135 226.828 16.5966 225.182C10.7875 223.537 6.63156 221.198 4.13448 218.188C1.6374 215.179 0.803554 211.505 1.66172 207.182C2.52104 202.854 5.06739 197.939 9.21743 192.533C17.5162 181.722 32.1091 169.095 51.8787 155.46C91.4052 128.2 151.454 97.029 222.657 68.4242C293.86 39.8195 362.68 19.22 416.371 9.03128C443.226 3.93528 466.237 1.45499 483.842 1.85964C492.646 2.06199 500.036 2.98488 505.853 4.6313C511.662 6.27551 515.818 8.61505 518.315 11.6245Z" stroke="url(#paint0_linear_1_415)" stroke-width="2"/>
<defs>
<linearGradient id="paint0_linear_1_415" x1="501.731" y1="-36.0015" x2="-39.9974" y2="61.8037" gradientUnits="userSpaceOnUse">
<stop stop-color="#733AE8"/>
<stop offset="1" stop-color="#EA4D69"/>
</linearGradient>
</defs>
</svg>
