<svg width="477" height="212" viewBox="0 0 477 212" fill="none" xmlns="http://www.w3.org/2000/svg">
<path d="M472.601 199.898C467.56 205.97 456.422 209.519 439.9 210.396C423.475 211.268 402.167 209.471 377.413 205.22C327.921 196.723 264.899 178.463 200.098 152.443C135.297 126.423 81.0474 97.5947 45.7201 72.035C28.0504 59.2508 15.1579 47.3152 8.03174 36.987C0.86301 26.5971 -0.286573 18.1136 4.75363 12.0422C9.79383 5.9708 20.9324 2.42149 37.4546 1.54425C53.8787 0.67221 75.1874 2.46959 99.9415 6.71993C149.433 15.2177 212.455 33.4777 277.257 59.4974C342.058 85.5172 396.307 114.346 431.634 139.905C449.304 152.69 462.196 164.625 469.322 174.953C476.491 185.343 477.641 193.827 472.601 199.898Z" stroke="url(#paint0_linear_3041_5044)" stroke-width="2"/>
<defs>
<linearGradient id="paint0_linear_3041_5044" x1="7.04411" y1="10.2183" x2="488.726" y2="48.9215" gradientUnits="userSpaceOnUse">
<stop stop-color="#733AE8"/>
<stop offset="1" stop-color="#EA4D69"/>
</linearGradient>
</defs>
</svg>
