<svg width="484" height="222" viewBox="0 0 484 222" fill="none" xmlns="http://www.w3.org/2000/svg">
<path d="M477.633 16.4462C483.72 23.7785 483.362 33.4646 476.978 44.8911C470.611 56.286 458.356 69.207 441.166 82.8437C406.797 110.109 352.875 140.103 287.539 166.337C222.203 192.572 157.893 210.052 106.757 217.12C81.1809 220.655 58.9634 221.576 41.5908 219.713C24.1701 217.845 11.9301 213.217 5.84314 205.885C-0.243786 198.553 0.113412 188.867 6.49772 177.44C12.8644 166.045 25.1202 153.124 42.3098 139.488C76.679 112.222 130.601 82.2287 195.937 55.9942C261.273 29.7597 325.583 12.2791 376.719 5.21128C402.295 1.67632 424.512 0.755139 441.885 2.61797C459.306 4.48596 471.546 9.11387 477.633 16.4462Z" stroke="url(#paint0_linear_3041_5045)" stroke-width="2"/>
<defs>
<linearGradient id="paint0_linear_3041_5045" x1="447.51" y1="10.5327" x2="-9.14668" y2="117.335" gradientUnits="userSpaceOnUse">
<stop stop-color="#733AE8"/>
<stop offset="1" stop-color="#EA4D69"/>
</linearGradient>
</defs>
</svg>
