<svg width="503" height="221" viewBox="0 0 503 221" fill="none" xmlns="http://www.w3.org/2000/svg">
<path d="M498.601 209.385C496.094 212.405 491.995 214.771 486.321 216.467C480.639 218.166 473.45 219.167 464.906 219.473C447.82 220.084 425.557 217.906 399.626 213.184C347.782 203.744 281.512 184.181 213.127 156.722C144.741 129.263 87.2453 99.13 49.568 72.6244C30.7231 59.3671 16.8793 47.0472 9.09752 36.4506C5.2063 31.1519 2.85862 26.321 2.1324 22.0494C1.40732 17.7846 2.30498 14.1319 4.81149 11.1126C7.318 8.09325 11.4175 5.72629 17.0907 4.03058C22.773 2.33218 29.9624 1.33074 38.5061 1.02506C55.5921 0.413746 77.8552 2.59187 103.786 7.31355C155.63 16.7538 221.9 36.317 290.285 63.7761C358.671 91.2353 416.167 121.368 453.844 147.873C472.689 161.131 486.533 173.451 494.315 184.047C498.206 189.346 500.553 194.177 501.28 198.448C502.005 202.713 501.107 206.366 498.601 209.385Z" stroke="url(#paint0_linear_3041_5046)" stroke-width="2"/>
<defs>
<linearGradient id="paint0_linear_3041_5046" x1="25.0402" y1="11.4168" x2="474.138" y2="112.119" gradientUnits="userSpaceOnUse">
<stop stop-color="#733AE8"/>
<stop offset="1" stop-color="#EA4D69"/>
</linearGradient>
</defs>
</svg>
