<?xml version="1.0" standalone="no"?>
<!DOCTYPE svg PUBLIC "-//W3C//DTD SVG 20010904//EN"
 "http://www.w3.org/TR/2001/REC-SVG-20010904/DTD/svg10.dtd">
<svg version="1.0" xmlns="http://www.w3.org/2000/svg"
 width="303.000000pt" height="614.000000pt" viewBox="0 0 303.000000 614.000000"
 preserveAspectRatio="xMidYMid meet">

<g transform="translate(0.000000,614.000000) scale(0.100000,-0.100000)"
fill="#000000" stroke="none">
<path d="M510 6133 c-105 -11 -236 -56 -223 -76 3 -6 1 -7 -5 -3 -13 8 -64
-22 -57 -34 3 -4 -3 -14 -12 -21 -12 -10 -14 -10 -9 -1 12 21 -9 13 -32 -11
-29 -31 -28 -45 1 -21 20 17 20 16 -2 -9 -26 -28 -37 -36 -25 -14 5 8 2 8 -9
-2 -19 -15 -23 -36 -5 -25 7 4 8 3 4 -5 -4 -6 -12 -9 -17 -5 -5 3 -21 -19 -35
-49 -48 -106 -54 -164 -54 -544 0 -294 -2 -353 -14 -353 -11 0 -14 -24 -15
-115 -2 -98 0 -115 14 -115 13 0 15 -17 15 -105 0 -61 -4 -105 -10 -105 -6 0
-9 -91 -9 -235 0 -143 4 -235 9 -235 13 0 13 -117 0 -125 -13 -8 -13 -465 0
-465 6 0 10 -542 10 -1484 0 -1588 -1 -1564 49 -1679 11 -27 25 -46 30 -43 5
3 8 -2 7 -12 0 -9 4 -16 11 -15 7 2 10 -3 7 -10 -2 -7 12 -28 32 -47 20 -19
33 -29 29 -21 -5 10 -4 12 4 7 6 -4 9 -11 6 -16 -13 -22 119 -94 220 -120 66
-18 1938 -27 2088 -11 105 12 234 50 230 69 -2 6 3 9 10 6 8 -3 25 5 38 16 13
12 18 18 10 14 -9 -5 -12 -3 -7 5 4 6 12 8 18 5 5 -3 25 9 44 27 33 32 46 57
21 43 -8 -5 -8 -2 2 9 16 20 26 23 15 5 -5 -9 -2 -9 9 1 19 15 23 36 5 25 -7
-4 -8 -3 -4 5 4 6 12 9 17 5 11 -6 41 57 66 142 16 55 18 160 21 1564 2 1169
5 1506 15 1512 9 6 9 10 0 16 -8 5 -9 13 -3 22 14 22 13 647 -1 656 -8 4 -7 9
2 14 9 6 10 12 1 22 -8 10 -12 225 -14 758 -4 814 -3 791 -64 917 -31 64 -121
166 -140 159 -8 -3 -13 0 -11 7 1 7 -6 11 -15 11 -10 -1 -15 2 -12 7 7 11 -80
51 -151 70 -39 10 -262 13 -1060 14 -556 1 -1026 0 -1045 -2z m1393 -10 c-243
-2 -643 -2 -890 0 -246 1 -48 2 442 2 490 0 691 -1 448 -2z m540 0 c-13 -2
-33 -2 -45 0 -13 2 -3 4 22 4 25 0 35 -2 23 -4z m-1940 -10 c-7 -2 -21 -2 -30
0 -10 3 -4 5 12 5 17 0 24 -2 18 -5z m2060 0 c-7 -2 -19 -2 -25 0 -7 3 -2 5
12 5 14 0 19 -2 13 -5z m-2126 -9 c-3 -3 -12 -4 -19 -1 -8 3 -5 6 6 6 11 1 17
-2 13 -5z m2173 -118 c116 -38 195 -112 236 -221 18 -49 19 -124 19 -2700 l0
-2650 -23 -50 c-52 -114 -124 -178 -237 -212 -56 -17 -125 -18 -1090 -18 -951
0 -1034 1 -1086 17 -113 35 -195 112 -241 225 l-23 58 -3 2600 c-1 1708 1
2618 8 2654 32 171 152 288 320 310 36 5 515 8 1065 7 936 -1 1003 -3 1055
-20z m245 -6 c10 -11 16 -20 13 -20 -3 0 -13 9 -23 20 -10 11 -16 20 -13 20 3
0 13 -9 23 -20z m55 -71 c15 -28 5 -23 -15 7 -9 15 -12 23 -6 20 6 -4 16 -16
21 -27z m-2829 -106 c-12 -20 -14 -14 -5 12 4 9 9 14 11 11 3 -2 0 -13 -6 -23z
m2896 -75 c-3 -8 -6 -5 -6 6 -1 11 2 17 5 13 3 -3 4 -12 1 -19z m-2920 -20
c-3 -8 -6 -5 -6 6 -1 11 2 17 5 13 3 -3 4 -12 1 -19z m2930 -35 c-3 -10 -5 -4
-5 12 0 17 2 24 5 18 2 -7 2 -21 0 -30z m-2940 -65 c-2 -13 -4 -3 -4 22 0 25
2 35 4 23 2 -13 2 -33 0 -45z m2950 -90 c-2 -18 -4 -6 -4 27 0 33 2 48 4 33 2
-15 2 -42 0 -60z m0 -3640 c-1 -656 -2 -120 -2 1192 0 1312 1 1848 2 1193 2
-656 2 -1730 0 -2385z m0 -1320 c-2 -18 -4 -4 -4 32 0 36 2 50 4 33 2 -18 2
-48 0 -65z m-2950 -70 c-2 -13 -4 -3 -4 22 0 25 2 35 4 23 2 -13 2 -33 0 -45z
m2940 -45 c-3 -10 -5 -2 -5 17 0 19 2 27 5 18 2 -10 2 -26 0 -35z m-2930 -25
c-3 -8 -6 -5 -6 6 -1 11 2 17 5 13 3 -3 4 -12 1 -19z m2920 -30 c-3 -7 -5 -2
-5 12 0 14 2 19 5 13 2 -7 2 -19 0 -25z m-2887 -73 c0 -5 -5 -3 -10 5 -5 8
-10 20 -10 25 0 6 5 3 10 -5 5 -8 10 -19 10 -25z m2861 -2 c-12 -20 -14 -14
-5 12 4 9 9 14 11 11 3 -2 0 -13 -6 -23z m-2780 -130 c13 -16 12 -17 -3 -4
-10 7 -18 15 -18 17 0 8 8 3 21 -13z m276 -149 c-3 -3 -12 -4 -19 -1 -8 3 -5
6 6 6 11 1 17 -2 13 -5z m2170 0 c-3 -3 -12 -4 -19 -1 -8 3 -5 6 6 6 11 1 17
-2 13 -5z m-2099 -11 c-10 -2 -26 -2 -35 0 -10 3 -2 5 17 5 19 0 27 -2 18 -5z
m2040 0 c-10 -2 -28 -2 -40 0 -13 2 -5 4 17 4 22 1 32 -1 23 -4z m-1920 -10
c-10 -2 -26 -2 -35 0 -10 3 -2 5 17 5 19 0 27 -2 18 -5z m1370 0 c-241 -2
-635 -2 -875 0 -241 1 -44 2 437 2 481 0 678 -1 438 -2z"/>
<path d="M1164 5920 c-11 -4 -33 -22 -47 -40 -47 -56 -30 -152 33 -185 24 -13
85 -15 375 -15 l345 0 36 33 c64 58 55 152 -19 197 -30 19 -52 20 -367 19
-184 0 -344 -4 -356 -9z"/>
<path d="M663 5883 c-7 -3 -13 -9 -13 -14 0 -4 7 -6 15 -3 8 4 15 1 15 -5 0
-6 -6 -11 -12 -11 -7 0 -5 -5 5 -11 23 -14 13 -28 -16 -22 -19 4 -19 3 -5 -6
27 -18 48 -3 44 30 -3 34 -15 49 -33 42z"/>
<path d="M733 5882 c-19 -12 -20 -64 -1 -75 20 -13 52 8 41 27 -4 6 -6 18 -5
27 3 18 -19 31 -35 21z m22 -22 c-3 -5 -10 -10 -16 -10 -5 0 -9 5 -9 10 0 6 7
10 16 10 8 0 12 -4 9 -10z m3 -31 c-2 -6 -8 -10 -13 -10 -5 0 -11 4 -13 10 -2
6 4 11 13 11 9 0 15 -5 13 -11z"/>
<path d="M2316 5877 c-14 -10 -8 -12 44 -12 52 0 58 2 44 12 -10 7 -30 13 -44
13 -14 0 -34 -6 -44 -13z"/>
<path d="M2474 5876 c-3 -8 -4 -27 -2 -43 l3 -28 85 0 85 0 0 40 0 40 -83 3
c-65 2 -84 0 -88 -12z m76 -42 c0 -8 -8 -14 -17 -13 -11 0 -13 3 -5 6 6 2 12
9 12 14 0 6 -4 7 -10 4 -5 -3 -10 1 -10 11 0 13 3 14 15 4 8 -7 15 -19 15 -26z
m41 27 c6 10 9 6 9 -13 0 -17 -5 -28 -13 -28 -20 0 -25 9 -19 33 3 13 7 16 10
8 4 -11 6 -11 13 0z"/>
<path d="M485 5870 c-3 -5 1 -10 9 -10 9 0 16 -12 19 -32 3 -29 4 -27 5 10 2
31 -2 42 -12 42 -8 0 -18 -4 -21 -10z"/>
<path d="M540 5859 c0 -14 5 -19 15 -16 17 7 29 -8 20 -23 -5 -8 -11 -7 -21 1
-10 9 -14 9 -14 0 0 -20 31 -25 47 -8 13 13 14 19 3 31 -7 9 -20 16 -29 17 -9
1 -5 4 9 9 l25 8 -27 1 c-22 1 -28 -4 -28 -20z"/>
<path d="M2190 5860 c0 -11 5 -20 10 -20 6 0 10 9 10 20 0 11 -4 20 -10 20 -5
0 -10 -9 -10 -20z"/>
<path d="M2150 5855 c0 -8 7 -15 15 -15 8 0 15 7 15 15 0 8 -7 15 -15 15 -8 0
-15 -7 -15 -15z"/>
<path d="M2120 5850 c0 -5 5 -10 10 -10 6 0 10 5 10 10 0 6 -4 10 -10 10 -5 0
-10 -4 -10 -10z"/>
<path d="M2332 5853 c-23 -9 -3 -19 32 -15 20 2 33 8 30 13 -6 10 -41 11 -62
2z"/>
<path d="M2350 5820 c0 -5 4 -10 9 -10 6 0 13 5 16 10 3 6 -1 10 -9 10 -9 0
-16 -4 -16 -10z"/>
<path d="M2120 5810 c0 -5 5 -10 10 -10 6 0 10 5 10 10 0 6 -4 10 -10 10 -5 0
-10 -4 -10 -10z"/>
<path d="M2150 5810 c0 -5 4 -10 9 -10 6 0 13 5 16 10 3 6 -1 10 -9 10 -9 0
-16 -4 -16 -10z"/>
<path d="M2190 5810 c0 -5 5 -10 10 -10 6 0 10 5 10 10 0 6 -4 10 -10 10 -5 0
-10 -4 -10 -10z"/>
<path d="M2230 5810 c0 -5 5 -10 10 -10 6 0 10 5 10 10 0 6 -4 10 -10 10 -5 0
-10 -4 -10 -10z"/>
<path d="M315 5586 c-27 -20 -15 -51 20 -51 23 0 31 5 33 22 4 29 -28 47 -53
29z m43 -25 c-2 -9 -11 -17 -21 -19 -21 -4 -35 27 -17 38 19 12 42 0 38 -19z"/>
<path d="M2692 5588 c-7 -7 -12 -17 -12 -22 0 -6 5 -3 11 7 22 38 68 13 72
-40 2 -25 -2 -29 -33 -34 -34 -6 -34 -6 -5 -8 45 -1 58 11 50 48 -11 53 -54
78 -83 49z"/>
<path d="M1487 5570 c-12 -33 -16 -80 -7 -80 11 0 24 63 17 82 -4 10 -6 9 -10
-2z"/>
<path d="M1536 5571 c-12 -19 -17 -81 -7 -81 6 0 11 8 11 18 1 16 1 16 14 0
17 -23 25 -23 19 1 -3 10 0 22 6 25 20 12 12 34 -14 38 -14 3 -27 3 -29 -1z
m34 -19 c0 -13 -12 -22 -22 -16 -10 6 -1 24 13 24 5 0 9 -4 9 -8z"/>
<path d="M1614 5550 c-3 -14 -7 -33 -9 -42 -2 -14 3 -18 23 -18 21 0 24 2 12
10 -13 9 -13 11 0 21 11 8 12 12 3 16 -18 7 -16 23 2 23 8 0 15 4 15 8 0 4 -9
8 -20 8 -14 0 -22 -9 -26 -26z"/>
<path d="M1691 5567 c-6 -6 -11 -26 -11 -44 0 -28 3 -33 24 -33 31 0 59 36 46
60 -12 22 -45 31 -59 17z m39 -11 c0 -2 3 -11 6 -19 3 -10 -3 -20 -15 -27 -19
-10 -21 -8 -21 20 0 20 5 30 15 30 8 0 15 -2 15 -4z"/>
<path d="M1276 5539 c-3 -17 -3 -35 0 -40 10 -16 53 -9 64 10 13 25 13 61 0
61 -5 0 -10 -11 -10 -24 0 -24 -22 -51 -33 -40 -3 4 -3 19 0 35 3 17 1 29 -4
29 -6 0 -13 -14 -17 -31z"/>
<path d="M1376 5554 c-9 -24 -7 -64 3 -64 5 0 11 12 13 28 l4 27 14 -27 c16
-35 40 -36 40 -4 0 13 3 31 6 40 3 9 2 16 -4 16 -5 0 -13 -10 -16 -22 l-7 -23
-11 23 c-13 26 -33 29 -42 6z"/>
<path d="M2662 5504 c4 -21 22 -23 26 -1 2 10 -3 17 -13 17 -10 0 -15 -6 -13
-16z"/>
<path d="M285 5501 c-9 -15 3 -31 23 -30 15 1 15 2 -1 6 -30 8 -8 23 34 23 40
0 53 -14 22 -24 -14 -4 -14 -4 2 -3 11 1 20 9 20 17 0 18 -89 27 -100 11z"/>
<path d="M2710 5466 c7 -7 13 -7 20 0 6 6 3 10 -10 10 -13 0 -16 -4 -10 -10z"/>
<path d="M2146 4692 c-2 -4 14 -6 37 -4 68 5 76 10 20 11 -28 0 -54 -2 -57 -7z"/>
<path d="M750 4637 c0 -28 0 -28 58 -25 52 3 57 5 60 28 3 24 1 25 -58 25 -59
0 -60 0 -60 -28z"/>
<path d="M1490 4649 c0 -5 9 -9 20 -9 11 0 20 2 20 4 0 2 -9 6 -20 9 -11 3
-20 1 -20 -4z"/>
<path d="M2141 4624 c0 -11 3 -14 6 -6 3 7 2 16 -1 19 -3 4 -6 -2 -5 -13z"/>
<path d="M2246 4623 c-6 -14 -5 -15 5 -6 7 7 10 15 7 18 -3 3 -9 -2 -12 -12z"/>
<path d="M1501 4551 c-10 -6 -9 -10 3 -14 8 -3 18 -2 21 3 8 13 -9 20 -24 11z"/>
<path d="M672 4515 c0 -16 2 -22 5 -12 2 9 2 23 0 30 -3 6 -5 -1 -5 -18z"/>
<path d="M2312 4510 c0 -14 2 -19 5 -12 2 6 2 18 0 25 -3 6 -5 1 -5 -13z"/>
<path d="M1983 4505 c0 -8 4 -12 9 -9 5 3 6 10 3 15 -9 13 -12 11 -12 -6z"/>
<path d="M2160 4504 c0 -8 5 -12 10 -9 6 4 8 11 5 16 -9 14 -15 11 -15 -7z"/>
<path d="M856 4157 c3 -10 9 -15 12 -12 3 3 0 11 -7 18 -10 9 -11 8 -5 -6z"/>
<path d="M2246 4157 c3 -10 9 -15 12 -12 3 3 0 11 -7 18 -10 9 -11 8 -5 -6z"/>
<path d="M750 4101 c0 -6 4 -13 10 -16 6 -3 7 1 4 9 -7 18 -14 21 -14 7z"/>
<path d="M856 4093 c-6 -14 -5 -15 5 -6 7 7 10 15 7 18 -3 3 -9 -2 -12 -12z"/>
<path d="M2140 4095 c0 -8 4 -15 10 -15 5 0 7 7 4 15 -4 8 -8 15 -10 15 -2 0
-4 -7 -4 -15z"/>
<path d="M2246 4093 c-6 -14 -5 -15 5 -6 7 7 10 15 7 18 -3 3 -9 -2 -12 -12z"/>
<path d="M1506 4021 c-4 -5 -2 -12 3 -15 5 -4 12 -2 15 3 4 5 2 12 -3 15 -5 4
-12 2 -15 -3z"/>
<path d="M770 3981 c0 -25 6 -27 13 -6 4 8 2 17 -3 20 -6 4 -10 -3 -10 -14z"/>
<path d="M2160 3981 c0 -25 6 -27 13 -6 4 8 2 17 -3 20 -6 4 -10 -3 -10 -14z"/>
<path d="M2312 3980 c0 -14 2 -19 5 -12 2 6 2 18 0 25 -3 6 -5 1 -5 -13z"/>
<path d="M593 3975 c0 -8 4 -12 9 -9 5 3 6 10 3 15 -9 13 -12 11 -12 -6z"/>
<path d="M720 3981 c0 -6 4 -13 10 -16 6 -3 7 1 4 9 -7 18 -14 21 -14 7z"/>
<path d="M2110 3981 c0 -6 4 -13 10 -16 6 -3 7 1 4 9 -7 18 -14 21 -14 7z"/>
<path d="M856 3627 c3 -10 9 -15 12 -12 3 3 0 11 -7 18 -10 9 -11 8 -5 -6z"/>
<path d="M2142 3583 c3 -27 5 -28 58 -28 53 0 55 1 58 28 3 27 3 27 -58 27
-61 0 -61 0 -58 -27z"/>
<path d="M1530 3586 c0 -2 8 -10 18 -17 15 -13 16 -12 3 4 -13 16 -21 21 -21
13z"/>
<path d="M754 3568 c2 -9 21 -13 56 -13 35 0 54 4 56 13 1 7 0 8 -3 2 -2 -5
-26 -10 -53 -10 -27 0 -51 5 -53 10 -3 6 -4 5 -3 -2z"/>
<path d="M2061 3467 c-1 -25 1 -27 19 -17 22 12 26 25 10 35 -6 3 -7 -1 -4 -9
3 -9 1 -16 -4 -16 -6 0 -13 8 -15 18 -3 10 -5 6 -6 -11z"/>
<path d="M770 3454 c0 -8 5 -12 10 -9 6 4 8 11 5 16 -9 14 -15 11 -15 -7z"/>
<path d="M720 3451 c0 -6 4 -13 10 -16 6 -3 7 1 4 9 -7 18 -14 21 -14 7z"/>
<path d="M2110 3451 c0 -6 4 -13 10 -16 6 -3 7 1 4 9 -7 18 -14 21 -14 7z"/>
<path d="M856 3097 c3 -10 9 -15 12 -12 3 3 0 11 -7 18 -10 9 -11 8 -5 -6z"/>
<path d="M1530 3056 c0 -2 8 -10 18 -17 15 -13 16 -12 3 4 -13 16 -21 21 -21
13z"/>
<path d="M754 3038 c2 -9 21 -13 56 -13 35 0 54 4 56 13 1 7 0 8 -3 2 -2 -5
-26 -10 -53 -10 -27 0 -51 5 -53 10 -3 6 -4 5 -3 -2z"/>
<path d="M1510 2959 c0 -5 5 -7 10 -4 6 3 10 8 10 11 0 2 -4 4 -10 4 -5 0 -10
-5 -10 -11z"/>
<path d="M2000 2951 c0 -5 7 -11 14 -14 10 -4 13 -1 9 9 -6 15 -23 19 -23 5z"/>
<path d="M2161 2944 c0 -11 3 -14 6 -6 3 7 2 16 -1 19 -3 4 -6 -2 -5 -13z"/>
<path d="M2361 2944 c0 -11 3 -14 6 -6 3 7 2 16 -1 19 -3 4 -6 -2 -5 -13z"/>
<path d="M770 2924 c0 -8 5 -12 10 -9 6 4 8 11 5 16 -9 14 -15 11 -15 -7z"/>
<path d="M2147 2583 c-4 -3 -7 -24 -7 -45 l0 -38 60 0 60 0 0 45 0 45 -53 0
c-30 0 -57 -3 -60 -7z m32 -29 c-10 -13 -10 -17 2 -25 11 -7 11 -9 -3 -9 -18
0 -25 30 -11 43 14 14 25 6 12 -9z"/>
<path d="M1490 2534 c0 -8 5 -12 10 -9 6 4 8 11 5 16 -9 14 -15 11 -15 -7z"/>
<path d="M860 2517 c0 -14 -10 -17 -49 -17 -27 0 -52 5 -54 10 -3 6 -4 5 -3
-2 2 -8 22 -14 54 -16 41 -2 54 1 58 13 4 9 4 19 0 22 -3 4 -6 -1 -6 -10z"/>
<path d="M1510 2434 c0 -8 5 -12 10 -9 6 4 8 11 5 16 -9 14 -15 11 -15 -7z"/>
<path d="M2232 2410 c0 -14 2 -19 5 -12 2 6 2 18 0 25 -3 6 -5 1 -5 -13z"/>
<path d="M770 2394 c0 -8 5 -12 10 -9 6 4 8 11 5 16 -9 14 -15 11 -15 -7z"/>
<path d="M757 2053 c-3 -4 19 -6 48 -5 45 3 54 1 59 -15 4 -15 5 -15 3 2 -2
17 -11 20 -54 23 -28 2 -53 -1 -56 -5z"/>
<path d="M2146 2045 c-17 -47 -9 -55 55 -55 l60 0 -3 33 c-3 31 -4 32 -54 35
-40 2 -53 -1 -58 -13z"/>
<path d="M1490 2007 c0 -7 11 -12 24 -12 28 0 26 10 -4 18 -11 3 -20 0 -20 -6z"/>
<path d="M751 1984 c0 -11 3 -14 6 -6 3 7 2 16 -1 19 -3 4 -6 -2 -5 -13z"/>
<path d="M851 1977 c-13 -21 -12 -21 5 -5 10 10 16 20 13 22 -3 3 -11 -5 -18
-17z"/>
<path d="M1477 1909 c7 -7 15 -10 18 -7 3 3 -2 9 -12 12 -14 6 -15 5 -6 -5z"/>
<path d="M1510 1904 c0 -8 5 -12 10 -9 6 4 8 11 5 16 -9 14 -15 11 -15 -7z"/>
<path d="M2201 1884 c0 -11 3 -14 6 -6 3 7 2 16 -1 19 -3 4 -6 -2 -5 -13z"/>
<path d="M2336 1891 c-3 -5 3 -11 15 -14 16 -4 18 -3 8 9 -13 16 -16 17 -23 5z"/>
<path d="M2411 1884 c0 -11 3 -14 6 -6 3 7 2 16 -1 19 -3 4 -6 -2 -5 -13z"/>
<path d="M770 1864 c0 -8 5 -12 10 -9 6 4 8 11 5 16 -9 14 -15 11 -15 -7z"/>
<path d="M757 1523 c-3 -4 18 -6 45 -4 35 2 54 -1 60 -10 8 -11 9 -11 5 1 -4
16 -101 28 -110 13z"/>
<path d="M2147 1523 c-4 -3 -7 -17 -7 -30 0 -22 4 -23 60 -23 l60 0 0 30 c0
30 -1 30 -53 30 -30 0 -57 -3 -60 -7z"/>
<path d="M750 1461 c0 -6 4 -13 10 -16 6 -3 7 1 4 9 -7 18 -14 21 -14 7z"/>
<path d="M856 1453 c-6 -14 -5 -15 5 -6 7 7 10 15 7 18 -3 3 -9 -2 -12 -12z"/>
<path d="M1501 1381 c-10 -6 -9 -10 3 -14 8 -3 18 -2 21 3 8 13 -9 20 -24 11z"/>
<path d="M2082 1355 c0 -16 2 -22 5 -12 2 9 2 23 0 30 -3 6 -5 -1 -5 -18z"/>
<path d="M2130 1370 c0 -5 5 -10 11 -10 5 0 7 5 4 10 -3 6 -8 10 -11 10 -2 0
-4 -4 -4 -10z"/>
<path d="M2322 1360 c0 -14 2 -19 5 -12 2 6 2 18 0 25 -3 6 -5 1 -5 -13z"/>
<path d="M2241 1354 c0 -11 3 -14 6 -6 3 7 2 16 -1 19 -3 4 -6 -2 -5 -13z"/>
<path d="M2271 1354 c0 -11 3 -14 6 -6 3 7 2 16 -1 19 -3 4 -6 -2 -5 -13z"/>
<path d="M2347 1359 c7 -7 15 -10 18 -7 3 3 -2 9 -12 12 -14 6 -15 5 -6 -5z"/>
<path d="M770 1342 c0 -10 7 -19 14 -19 11 0 13 5 5 19 -5 10 -12 18 -14 18
-3 0 -5 -8 -5 -18z"/>
<path d="M755 989 c-4 -6 -5 -12 -2 -15 2 -3 7 2 10 11 7 17 1 20 -8 4z"/>
<path d="M856 987 c3 -10 9 -15 12 -12 3 3 0 11 -7 18 -10 9 -11 8 -5 -6z"/>
<path d="M2145 990 c-4 -6 17 -10 54 -10 34 0 61 4 61 10 0 6 -24 10 -54 10
-30 0 -58 -4 -61 -10z"/>
<path d="M754 928 c2 -9 21 -13 56 -13 35 0 54 4 56 13 1 7 0 8 -3 2 -2 -5
-26 -10 -53 -10 -27 0 -51 5 -53 10 -3 6 -4 5 -3 -2z"/>
<path d="M2153 928 c2 -8 22 -13 52 -13 30 0 50 5 53 13 3 9 -12 12 -53 12
-41 0 -56 -3 -52 -12z"/>
<path d="M1952 840 c0 -19 2 -27 5 -17 2 9 2 25 0 35 -3 9 -5 1 -5 -18z"/>
<path d="M1510 844 c0 -8 5 -12 10 -9 6 4 8 11 5 16 -9 14 -15 11 -15 -7z"/>
<path d="M2422 830 c0 -14 2 -19 5 -12 2 6 2 18 0 25 -3 6 -5 1 -5 -13z"/>
<path d="M2095 830 c4 -6 11 -8 16 -5 14 9 11 15 -7 15 -8 0 -12 -5 -9 -10z"/>
<path d="M2241 824 c0 -11 3 -14 6 -6 3 7 2 16 -1 19 -3 4 -6 -2 -5 -13z"/>
<path d="M2401 824 c0 -11 3 -14 6 -6 3 7 2 16 -1 19 -3 4 -6 -2 -5 -13z"/>
<path d="M770 814 c0 -8 5 -12 10 -9 6 4 8 11 5 16 -9 14 -15 11 -15 -7z"/>
<path d="M720 811 c0 -6 4 -13 10 -16 6 -3 7 1 4 9 -7 18 -14 21 -14 7z"/>
<path d="M392 617 c-15 -16 -22 -36 -22 -65 0 -38 2 -42 25 -42 16 0 25 6 25
15 0 8 4 15 9 15 5 0 11 -7 15 -15 7 -20 42 -19 50 1 13 33 5 64 -21 89 -34
31 -53 32 -81 2z m77 -11 c27 -28 26 -79 -1 -84 -11 -2 -18 3 -18 12 0 9 -8
16 -20 16 -11 0 -20 -7 -20 -15 0 -8 -7 -15 -15 -15 -26 0 -20 75 7 94 30 21
41 20 67 -8z"/>
<path d="M1505 630 c-3 -6 1 -7 9 -4 9 3 16 1 16 -5 0 -6 -10 -11 -23 -11 -32
0 -47 -18 -47 -57 0 -35 21 -53 62 -53 34 0 48 18 48 60 0 55 -44 103 -65 70z
m51 -57 c2 -13 -1 -23 -7 -23 -5 0 -7 5 -4 10 3 6 1 10 -4 10 -6 0 -11 -7 -11
-15 0 -8 7 -15 16 -15 21 0 12 -24 -10 -28 -10 -2 -28 -1 -42 2 -19 5 -24 13
-24 40 0 42 6 48 49 44 27 -2 35 -8 37 -25z"/>
<path d="M1498 573 c7 -3 16 -2 19 1 4 3 -2 6 -13 5 -11 0 -14 -3 -6 -6z"/>
<path d="M2060 610 c0 -27 3 -30 30 -30 34 0 39 18 12 43 -28 25 -42 21 -42
-13z m38 8 c18 -18 15 -28 -8 -28 -13 0 -20 7 -20 20 0 23 10 26 28 8z"/>
<path d="M2540 610 c0 -28 3 -31 28 -28 21 2 27 8 27 28 0 20 -6 26 -27 28
-25 3 -28 0 -28 -28z m48 3 c-5 -26 -38 -29 -38 -4 0 15 6 21 21 21 14 0 19
-5 17 -17z"/>
<path d="M2614 625 c-10 -25 4 -47 28 -43 17 2 24 11 26 31 3 23 0 27 -23 27
-14 0 -28 -7 -31 -15z m46 -15 c0 -13 -7 -20 -20 -20 -13 0 -20 7 -20 20 0 13
7 20 20 20 13 0 20 -7 20 -20z"/>
<path d="M1000 620 c0 -5 -17 -11 -37 -12 l-38 -1 35 -4 c19 -3 38 -10 42 -16
10 -17 32 7 25 27 -7 18 -27 22 -27 6z"/>
<path d="M2004 589 c-17 -19 -17 -23 -3 -47 17 -32 59 -40 83 -17 24 24 20 45
-9 45 -18 0 -25 5 -25 20 0 26 -22 26 -46 -1z m36 -9 c0 -15 7 -20 25 -20 27
0 32 -9 13 -28 -35 -35 -99 15 -68 53 17 21 30 19 30 -5z"/>
<path d="M930 555 c-11 -13 -11 -19 3 -33 16 -15 17 -15 17 1 0 12 9 17 33 18
l32 2 -30 4 c-16 3 -33 9 -36 14 -3 6 -12 3 -19 -6z"/>
<path d="M2546 562 c-3 -5 5 -8 17 -8 13 1 23 -6 25 -18 3 -15 -1 -18 -22 -14
-14 3 -26 1 -26 -3 0 -12 47 -11 55 1 11 18 -6 50 -25 50 -10 0 -21 -4 -24 -8z"/>
<path d="M2614 556 c-10 -26 4 -46 31 -46 23 0 26 4 23 28 -3 31 -44 45 -54
18z m46 -16 c0 -13 -7 -20 -20 -20 -13 0 -20 7 -20 20 0 13 7 20 20 20 13 0
20 -7 20 -20z"/>
<path d="M292 465 c0 -16 2 -22 5 -12 2 9 2 23 0 30 -3 6 -5 -1 -5 -18z"/>
<path d="M2444 475 c-3 -8 -4 -20 -1 -27 3 -7 6 -3 6 9 1 12 9 24 19 26 16 4
16 5 -1 6 -10 0 -20 -6 -23 -14z"/>
<path d="M1903 465 c-3 -9 -3 -18 -1 -21 3 -3 8 4 11 16 6 23 -1 27 -10 5z"/>
<path d="M2146 467 c3 -10 9 -15 12 -12 3 3 0 11 -7 18 -10 9 -11 8 -5 -6z"/>
<path d="M2262 460 c0 -14 2 -19 5 -12 2 6 2 18 0 25 -3 6 -5 1 -5 -13z"/>
<path d="M391 454 c0 -11 3 -14 6 -6 3 7 2 16 -1 19 -3 4 -6 -2 -5 -13z"/>
<path d="M411 454 c0 -11 3 -14 6 -6 3 7 2 16 -1 19 -3 4 -6 -2 -5 -13z"/>
<path d="M431 454 c0 -11 3 -14 6 -6 3 7 2 16 -1 19 -3 4 -6 -2 -5 -13z"/>
<path d="M466 461 c-19 -7 -19 -8 2 -13 15 -4 22 -2 22 8 0 8 -1 14 -2 13 -2
0 -12 -4 -22 -8z"/>
<path d="M521 454 c0 -11 3 -14 6 -6 3 7 2 16 -1 19 -3 4 -6 -2 -5 -13z"/>
<path d="M561 454 c0 -11 3 -14 6 -6 3 7 2 16 -1 19 -3 4 -6 -2 -5 -13z"/>
<path d="M1441 454 c0 -11 3 -14 6 -6 3 7 2 16 -1 19 -3 4 -6 -2 -5 -13z"/>
<path d="M1511 454 c0 -11 3 -14 6 -6 3 7 2 16 -1 19 -3 4 -6 -2 -5 -13z"/>
<path d="M1991 454 c0 -11 3 -14 6 -6 3 7 2 16 -1 19 -3 4 -6 -2 -5 -13z"/>
<path d="M2016 455 c4 -8 8 -15 10 -15 2 0 4 7 4 15 0 8 -4 15 -10 15 -5 0 -7
-7 -4 -15z"/>
<path d="M2122 450 c0 -14 2 -19 5 -12 2 6 2 18 0 25 -3 6 -5 1 -5 -13z"/>
<path d="M2241 454 c0 -11 3 -14 6 -6 3 7 2 16 -1 19 -3 4 -6 -2 -5 -13z"/>
<path d="M2542 450 c0 -14 2 -19 5 -12 2 6 2 18 0 25 -3 6 -5 1 -5 -13z"/>
<path d="M2602 461 c-11 -7 -11 -9 0 -14 9 -3 15 1 15 9 0 8 -1 14 -1 14 -1 0
-7 -4 -14 -9z"/>
<path d="M2721 454 c0 -11 3 -14 6 -6 3 7 2 16 -1 19 -3 4 -6 -2 -5 -13z"/>
<path d="M1481 444 c0 -11 3 -14 6 -6 3 7 2 16 -1 19 -3 4 -6 -2 -5 -13z"/>
<path d="M1590 451 c0 -5 9 -11 19 -14 14 -3 18 -1 14 9 -6 15 -33 19 -33 5z"/>
<path d="M1641 444 c0 -11 3 -14 6 -6 3 7 2 16 -1 19 -3 4 -6 -2 -5 -13z"/>
<path d="M1037 214 c-4 -4 -4 -11 -1 -15 3 -5 221 -9 485 -9 419 0 479 2 479
15 0 13 -60 15 -478 15 -263 0 -482 -3 -485 -6z"/>
</g>
</svg>
