<svg width="20" height="20" viewBox="0 0 20 20" fill="none" xmlns="http://www.w3.org/2000/svg">
<circle cx="10" cy="10" r="10" fill="white"/>
<path d="M6.6123 5.70703H9.10693L8.36426 10.3726C8.30501 10.728 8.26481 11.0073 8.24365 11.2104C8.22249 11.4093 8.21191 11.585 8.21191 11.7373C8.21191 12.1351 8.32406 12.4461 8.54834 12.6704C8.77262 12.8905 9.08577 13.0005 9.48779 13.0005C10.4442 13.0005 11.1234 11.7267 11.5254 9.1792L11.5381 9.09033L12.0713 5.70703H14.5659L13.7344 10.9819V10.9883C13.5524 12.1309 13.3239 12.9391 13.0488 13.4131C12.7018 14.0182 12.2109 14.4795 11.5762 14.7969C10.9456 15.1143 10.2008 15.2729 9.3418 15.2729C8.23307 15.2729 7.3444 15.0085 6.67578 14.4795C6.00716 13.9463 5.67285 13.2396 5.67285 12.3594C5.67285 12.097 5.69824 11.7458 5.74902 11.3057C5.7998 10.8656 5.87598 10.3197 5.97754 9.66797L6.6123 5.70703Z" fill="#EF2B23"/>
</svg>
