<svg width="44" height="24" viewBox="0 0 44 24" fill="none" xmlns="http://www.w3.org/2000/svg">
<rect width="44" height="24" rx="12" fill="white"/>
<path d="M31 7.75H13C12.59 7.75 12.25 7.41 12.25 7C12.25 6.59 12.59 6.25 13 6.25H31C31.41 6.25 31.75 6.59 31.75 7C31.75 7.41 31.41 7.75 31 7.75Z" fill="#1C1C1C"/>
<path d="M31 12.75H13C12.59 12.75 12.25 12.41 12.25 12C12.25 11.59 12.59 11.25 13 11.25H31C31.41 11.25 31.75 11.59 31.75 12C31.75 12.41 31.41 12.75 31 12.75Z" fill="#1C1C1C"/>
<path d="M31 17.75H13C12.59 17.75 12.25 17.41 12.25 17C12.25 16.59 12.59 16.25 13 16.25H31C31.41 16.25 31.75 16.59 31.75 17C31.75 17.41 31.41 17.75 31 17.75Z" fill="#1C1C1C"/>
</svg>
