<svg width="25" height="24" viewBox="0 0 25 24" fill="none" xmlns="http://www.w3.org/2000/svg">
<path opacity="0.4" d="M17.5 7.75C17.31 7.75 17.12 7.68 16.97 7.53C16.68 7.24 16.68 6.76 16.97 6.47L19.02 4.42C17.26 2.92 14.99 2 12.5 2C6.98 2 2.5 6.48 2.5 12C2.5 17.52 6.98 22 12.5 22C18.02 22 22.5 17.52 22.5 12C22.5 9.51 21.58 7.24 20.08 5.48L18.03 7.53C17.88 7.68 17.69 7.75 17.5 7.75Z" fill="white"/>
<path d="M14.25 11.82L13.25 11.47V9.25H13.33C13.84 9.25 14.25 9.7 14.25 10.25C14.25 10.66 14.59 11 15 11C15.41 11 15.75 10.66 15.75 10.25C15.75 8.87 14.67 7.75 13.33 7.75H13.25V7.5C13.25 7.09 12.91 6.75 12.5 6.75C12.09 6.75 11.75 7.09 11.75 7.5V7.75H11.45C10.24 7.75 9.25 8.77 9.25 10.03C9.25 11.49 10.1 11.96 10.75 12.19L11.75 12.54V14.76H11.67C11.16 14.76 10.75 14.31 10.75 13.76C10.75 13.35 10.41 13.01 10 13.01C9.59 13.01 9.25 13.35 9.25 13.76C9.25 15.14 10.33 16.26 11.67 16.26H11.75V16.51C11.75 16.92 12.09 17.26 12.5 17.26C12.91 17.26 13.25 16.92 13.25 16.51V16.26H13.55C14.76 16.26 15.75 15.24 15.75 13.98C15.75 12.51 14.9 12.04 14.25 11.82ZM11.24 10.76C10.9 10.64 10.75 10.57 10.75 10.02C10.75 9.59 11.07 9.24 11.45 9.24H11.75V10.93L11.24 10.76ZM13.55 14.75H13.25V13.06L13.76 13.24C14.1 13.36 14.25 13.43 14.25 13.98C14.25 14.4 13.93 14.75 13.55 14.75Z" fill="white"/>
<path d="M23.1902 1.70999C23.1102 1.52999 22.9702 1.38 22.7802 1.3C22.6902 1.26 22.5902 1.23999 22.4902 1.23999H18.4902C18.0802 1.23999 17.7402 1.57999 17.7402 1.98999C17.7402 2.39999 18.0802 2.73999 18.4902 2.73999H20.6802L19.0103 4.41C19.3903 4.74 19.7403 5.08999 20.0703 5.46999L21.7402 3.8V5.99999C21.7402 6.40999 22.0802 6.74999 22.4902 6.74999C22.9002 6.74999 23.2402 6.40999 23.2402 5.99999V1.99999C23.2502 1.89999 23.2302 1.80999 23.1902 1.70999Z" fill="white"/>
</svg>
