<svg width="48" height="48" viewBox="0 0 48 48" fill="none" xmlns="http://www.w3.org/2000/svg">
<path opacity="0.4" d="M43.32 20.88L41.36 29.24C39.68 36.46 36.36 39.38 30.12 38.78C29.12 38.7 28.04 38.52 26.88 38.24L23.52 37.44C15.18 35.46 12.6 31.34 14.56 22.98L16.52 14.6C16.92 12.9 17.4 11.42 18 10.2C20.34 5.36002 24.32 4.06002 31 5.64002L34.34 6.42002C42.72 8.38002 45.28 12.52 43.32 20.88Z" fill="#F44949"/>
<path d="M30.12 38.7802C28.88 39.6202 27.32 40.3202 25.42 40.9402L22.26 41.9802C14.32 44.5402 10.14 42.4002 7.55995 34.4602L4.99995 26.5602C2.43995 18.6202 4.55995 14.4202 12.5 11.8602L15.66 10.8202C16.48 10.5602 17.26 10.3402 18 10.2002C17.4 11.4202 16.92 12.9002 16.52 14.6002L14.56 22.9802C12.6 31.3402 15.18 35.4602 23.52 37.4402L26.88 38.2402C28.04 38.5202 29.12 38.7002 30.12 38.7802Z" fill="#F44949"/>
<path d="M34.98 21.02C34.86 21.02 34.74 21 34.6 20.98L24.9 18.52C24.1 18.32 23.62 17.5 23.82 16.7C24.02 15.9 24.84 15.42 25.64 15.62L35.34 18.08C36.14 18.28 36.62 19.1 36.42 19.9C36.26 20.56 35.64 21.02 34.98 21.02Z" fill="#F44949"/>
<path d="M29.12 27.7798C29 27.7798 28.88 27.7598 28.74 27.7398L22.92 26.2598C22.12 26.0598 21.64 25.2398 21.84 24.4398C22.04 23.6398 22.86 23.1598 23.66 23.3598L29.48 24.8398C30.28 25.0398 30.76 25.8598 30.56 26.6598C30.4 27.3398 29.8 27.7798 29.12 27.7798Z" fill="#F44949"/>
</svg>
