<svg width="36" height="36" viewBox="0 0 36 36" fill="none" xmlns="http://www.w3.org/2000/svg">
<path opacity="0.4" d="M32.4898 15.66L31.0198 21.93C29.7598 27.345 27.2698 29.535 22.5898 29.085C21.8398 29.025 21.0298 28.89 20.1598 28.68L17.6398 28.08C11.3848 26.595 9.44978 23.505 10.9198 17.235L12.3898 10.95C12.6898 9.67501 13.0498 8.56501 13.4998 7.65001C15.2548 4.02001 18.2398 3.04501 23.2498 4.23001L25.7548 4.81501C32.0398 6.28501 33.9598 9.39001 32.4898 15.66Z" fill="#455363"/>
<path d="M22.59 29.0849C21.66 29.7149 20.49 30.2399 19.065 30.7049L16.695 31.4849C10.74 33.4049 7.60502 31.7999 5.67002 25.8449L3.75002 19.9199C1.83002 13.9649 3.42002 10.8149 9.37502 8.8949L11.745 8.1149C12.36 7.9199 12.945 7.7549 13.5 7.6499C13.05 8.5649 12.69 9.6749 12.39 10.9499L10.92 17.2349C9.45002 23.5049 11.385 26.5949 17.64 28.0799L20.16 28.6799C21.03 28.8899 21.84 29.0249 22.59 29.0849Z" fill="#455363"/>
<path d="M26.2351 15.7649C26.1451 15.7649 26.0551 15.7499 25.9501 15.7349L18.6751 13.8899C18.0751 13.7399 17.7151 13.1249 17.8651 12.5249C18.0151 11.9249 18.6301 11.5649 19.2301 11.7149L26.5051 13.5599C27.1051 13.7099 27.4651 14.3249 27.3151 14.9249C27.1951 15.4199 26.7301 15.7649 26.2351 15.7649Z" fill="#455363"/>
<path d="M21.8402 20.8351C21.7502 20.8351 21.6602 20.8201 21.5552 20.8051L17.1902 19.6951C16.5902 19.5451 16.2302 18.9301 16.3802 18.3301C16.5302 17.7301 17.1452 17.3701 17.7452 17.5201L22.1102 18.6301C22.7102 18.7801 23.0702 19.3951 22.9202 19.9951C22.8002 20.5051 22.3502 20.8351 21.8402 20.8351Z" fill="#455363"/>
</svg>
