<svg width="48" height="48" viewBox="0 0 48 48" fill="none" xmlns="http://www.w3.org/2000/svg">
<path opacity="0.4" d="M18 4C12.76 4 8.5 8.26 8.5 13.5C8.5 18.64 12.52 22.8 17.76 22.98C17.92 22.96 18.08 22.96 18.2 22.98C18.24 22.98 18.26 22.98 18.3 22.98C18.32 22.98 18.32 22.98 18.34 22.98C23.46 22.8 27.48 18.64 27.5 13.5C27.5 8.26 23.24 4 18 4Z" fill="#F44949"/>
<path d="M28.16 28.2998C22.58 24.5798 13.48 24.5798 7.86004 28.2998C5.32004 29.9998 3.92004 32.2998 3.92004 34.7598C3.92004 37.2198 5.32004 39.4998 7.84004 41.1798C10.64 43.0598 14.32 43.9998 18 43.9998C21.68 43.9998 25.36 43.0598 28.16 41.1798C30.68 39.4798 32.08 37.1998 32.08 34.7198C32.06 32.2598 30.68 29.9798 28.16 28.2998Z" fill="#F44949"/>
<path opacity="0.4" d="M39.98 14.6802C40.3 18.5602 37.54 21.9602 33.72 22.4202C33.7 22.4202 33.7 22.4202 33.68 22.4202H33.62C33.5 22.4202 33.38 22.4202 33.28 22.4602C31.34 22.5602 29.56 21.9402 28.22 20.8002C30.28 18.9602 31.46 16.2002 31.22 13.2002C31.08 11.5802 30.52 10.1002 29.68 8.8402C30.44 8.4602 31.32 8.2202 32.22 8.1402C36.14 7.8002 39.64 10.7202 39.98 14.6802Z" fill="#F44949"/>
<path d="M43.98 33.1798C43.82 35.1198 42.58 36.7998 40.5 37.9398C38.5 39.0398 35.98 39.5598 33.48 39.4998C34.92 38.1998 35.76 36.5798 35.92 34.8598C36.12 32.3798 34.94 29.9998 32.58 28.0998C31.24 27.0398 29.68 26.1998 27.98 25.5798C32.4 24.2998 37.96 25.1598 41.38 27.9198C43.22 29.3998 44.16 31.2598 43.98 33.1798Z" fill="#F44949"/>
</svg>
