<svg width="523" height="229" viewBox="0 0 523 229" fill="none" xmlns="http://www.w3.org/2000/svg">
    <g>
        <g>

            <path
                d="M518.315 11.6245C520.812 14.634 521.646 18.3081 520.788 22.6308C519.928 26.9593 517.382 31.8739 513.232 37.2803C504.933 48.0912 490.34 60.718 470.571 74.3525C431.044 101.612 370.996 132.784 299.793 161.389C228.59 189.993 159.769 210.593 106.078 220.782C79.2238 225.878 56.212 228.358 38.6072 227.953C29.8035 227.751 22.4135 226.828 16.5966 225.182C10.7875 223.537 6.63156 221.198 4.13448 218.188C1.6374 215.179 0.803554 211.505 1.66172 207.182C2.52104 202.853 5.06739 197.939 9.21743 192.533C17.5162 181.722 32.1091 169.095 51.8787 155.46C91.4052 128.2 151.454 97.0289 222.657 68.4241C293.86 39.8194 362.68 19.2199 416.371 9.03122C443.226 3.93522 466.237 1.45493 483.842 1.85958C492.646 2.06193 500.036 2.98481 505.853 4.63124C511.662 6.27545 515.818 8.61499 518.315 11.6245Z"
                stroke="url(#paint0_linear_3041_5042)" stroke-width="2" />
        </g>
        <g>

            <path
                d="M472.601 199.898C467.56 205.97 456.422 209.519 439.9 210.396C423.475 211.268 402.167 209.471 377.413 205.22C327.921 196.723 264.899 178.463 200.098 152.443C135.297 126.423 81.0474 97.5947 45.7201 72.035C28.0504 59.2508 15.1579 47.3152 8.03174 36.987C0.86301 26.5971 -0.286573 18.1136 4.75363 12.0422C9.79383 5.9708 20.9324 2.42149 37.4546 1.54425C53.8787 0.67221 75.1874 2.46959 99.9415 6.71993C149.433 15.2177 212.455 33.4777 277.257 59.4974C342.058 85.5172 396.307 114.346 431.634 139.905C449.304 152.69 462.196 164.625 469.322 174.953C476.491 185.343 477.641 193.827 472.601 199.898Z"
                stroke="url(#paint0_linear_3041_5044)" stroke-width="2" />
        </g>
        <g>

            <path
                d="M477.633 16.4462C483.72 23.7785 483.362 33.4646 476.978 44.8911C470.611 56.286 458.356 69.207 441.166 82.8437C406.797 110.109 352.875 140.103 287.539 166.337C222.203 192.572 157.893 210.052 106.757 217.12C81.1809 220.655 58.9634 221.576 41.5908 219.713C24.1701 217.845 11.9301 213.217 5.84314 205.885C-0.243786 198.553 0.113412 188.867 6.49772 177.44C12.8644 166.045 25.1202 153.124 42.3098 139.488C76.679 112.222 130.601 82.2287 195.937 55.9942C261.273 29.7597 325.583 12.2791 376.719 5.21128C402.295 1.67632 424.512 0.755139 441.885 2.61797C459.306 4.48596 471.546 9.11387 477.633 16.4462Z"
                stroke="url(#paint0_linear_3041_5045)" stroke-width="2" />
        </g>
        <g>

            <path
                d="M498.601 209.385C496.094 212.405 491.995 214.771 486.321 216.467C480.639 218.166 473.45 219.167 464.906 219.473C447.82 220.084 425.557 217.906 399.626 213.184C347.782 203.744 281.512 184.181 213.127 156.722C144.741 129.263 87.2453 99.13 49.568 72.6244C30.7231 59.3671 16.8793 47.0472 9.09752 36.4506C5.2063 31.1519 2.85862 26.321 2.1324 22.0494C1.40732 17.7846 2.30498 14.1319 4.81149 11.1126C7.318 8.09325 11.4175 5.72629 17.0907 4.03058C22.773 2.33218 29.9624 1.33074 38.5061 1.02506C55.5921 0.413746 77.8552 2.59187 103.786 7.31355C155.63 16.7538 221.9 36.317 290.285 63.7761C358.671 91.2353 416.167 121.368 453.844 147.873C472.689 161.131 486.533 173.451 494.315 184.047C498.206 189.346 500.553 194.177 501.28 198.448C502.005 202.713 501.107 206.366 498.601 209.385Z"
                stroke="url(#paint0_linear_3041_5046)" stroke-width="2" />
        </g>
    </g>


    <defs>
        <linearGradient id="paint0_linear_3041_5042" x1="501.731" y1="-36.0016" x2="-39.9974"
            y2="61.8036" gradientUnits="userSpaceOnUse">
            <stop stop-color="#733AE8" />
            <stop offset="1" stop-color="#EA4D69" />
        </linearGradient>
    </defs>
</svg>
    