<svg width="25" height="24" viewBox="0 0 25 24" fill="none" xmlns="http://www.w3.org/2000/svg">
<path d="M5.5 15C3.29 15 1.5 16.79 1.5 19C1.5 19.75 1.71 20.46 2.08 21.06C2.77 22.22 4.04 23 5.5 23C6.96 23 8.23 22.22 8.92 21.06C9.29 20.46 9.5 19.75 9.5 19C9.5 16.79 7.71 15 5.5 15ZM7.47 18.67L5.34 20.64C5.2 20.77 5.01 20.84 4.83 20.84C4.64 20.84 4.45 20.77 4.3 20.62L3.31 19.63C3.02 19.34 3.02 18.86 3.31 18.57C3.6 18.28 4.08 18.28 4.37 18.57L4.85 19.05L6.45 17.57C6.75 17.29 7.23 17.31 7.51 17.61C7.79 17.91 7.77 18.39 7.47 18.67Z" fill="white"/>
<path d="M18.2504 7.04997C18.0104 7.00997 17.7604 6.99998 17.5004 6.99998H7.50043C7.22043 6.99998 6.95043 7.01998 6.69043 7.05998C6.83043 6.77998 7.03043 6.52001 7.27043 6.28001L10.5204 3.02C11.8904 1.66 14.1104 1.66 15.4804 3.02L17.2304 4.78996C17.8704 5.41996 18.2104 6.21997 18.2504 7.04997Z" fill="white"/>
<path opacity="0.4" d="M22.5 12V17C22.5 20 20.5 22 17.5 22H8.13C8.44 21.74 8.71 21.42 8.92 21.06C9.29 20.46 9.5 19.75 9.5 19C9.5 16.79 7.71 15 5.5 15C4.3 15 3.23 15.53 2.5 16.36V12C2.5 9.28 4.14 7.38 6.69 7.06C6.95 7.02 7.22 7 7.5 7H17.5C17.76 7 18.01 7.00999 18.25 7.04999C20.83 7.34999 22.5 9.26 22.5 12Z" fill="white"/>
<path d="M22.5 12.5H19.5C18.4 12.5 17.5 13.4 17.5 14.5C17.5 15.6 18.4 16.5 19.5 16.5H22.5" fill="white"/>
</svg>
