<svg id="visual" viewBox="0 0 960 640" width="960" height="640" xmlns="http://www.w3.org/2000/svg" xmlns:xlink="http://www.w3.org/1999/xlink" version="1.1"><rect x="0" y="0" width="960" height="640" fill="#002233"></rect><path d="M0 161L22.8 148.2C45.7 135.3 91.3 109.7 137 115.3C182.7 121 228.3 158 274 182.7C319.7 207.3 365.3 219.7 411.2 225.2C457 230.7 503 229.3 548.8 226C594.7 222.7 640.3 217.3 686 193.5C731.7 169.7 777.3 127.3 823 111C868.7 94.7 914.3 104.3 937.2 109.2L960 114L960 0L937.2 0C914.3 0 868.7 0 823 0C777.3 0 731.7 0 686 0C640.3 0 594.7 0 548.8 0C503 0 457 0 411.2 0C365.3 0 319.7 0 274 0C228.3 0 182.7 0 137 0C91.3 0 45.7 0 22.8 0L0 0Z" fill="#0066FF" stroke-linecap="round" stroke-linejoin="miter"></path></svg>