<svg id="visual" viewBox="0 0 960 640" width="960" height="640" xmlns="http://www.w3.org/2000/svg"
    xmlns:xlink="http://www.w3.org/1999/xlink" version="1.1">
    <rect x="0" y="0" width="960" height="640" fill="#002233"></rect>
    <path
        d="M0 137L22.8 149.5C45.7 162 91.3 187 137 192.7C182.7 198.3 228.3 184.7 274 186.3C319.7 188 365.3 205 411.2 198.3C457 191.7 503 161.3 548.8 150.7C594.7 140 640.3 149 686 140.5C731.7 132 777.3 106 823 113.5C868.7 121 914.3 162 937.2 182.5L960 203L960 0L937.2 0C914.3 0 868.7 0 823 0C777.3 0 731.7 0 686 0C640.3 0 594.7 0 548.8 0C503 0 457 0 411.2 0C365.3 0 319.7 0 274 0C228.3 0 182.7 0 137 0C91.3 0 45.7 0 22.8 0L0 0Z"
        fill="#0066FF" stroke-linecap="round" stroke-linejoin="miter"></path>
</svg>